<svg xmlns="http://www.w3.org/2000/svg" xmlns:xlink="http://www.w3.org/1999/xlink" width="128" height="128"><defs><filter id="d" width="1.414" height="1.414" x="-.207" y="-.207" filterUnits="objectBoundingBox"><feOffset in="SourceAlpha" result="shadowOffsetOuter1"/><feGaussianBlur in="shadowOffsetOuter1" result="shadowBlurOuter1" stdDeviation="5"/><feColorMatrix in="shadowBlurOuter1" values="0 0 0 0 0 0 0 0 0 0 0 0 0 0 0 0 0 0 0.2 0"/></filter><filter id="f" width="1.414" height="1.414" x="-.207" y="-.207" filterUnits="objectBoundingBox"><feOffset in="SourceAlpha" result="shadowOffsetOuter1"/><feGaussianBlur in="shadowOffsetOuter1" result="shadowBlurOuter1" stdDeviation="5"/><feColorMatrix in="shadowBlurOuter1" values="0 0 0 0 0 0 0 0 0 0 0 0 0 0 0 0 0 0 0.2 0"/></filter><circle id="b" cx="29" cy="29" r="29"/><circle id="e" cx="29" cy="29" r="29"/><linearGradient id="a" x1="64.944%" x2="100%" y1="65.263%" y2="30.659%"><stop offset="0%" stop-color="#FFB200" stop-opacity=".05"/><stop offset="100%" stop-color="#FFB200" stop-opacity=".4"/></linearGradient><clipPath id="g" clipPathUnits="userSpaceOnUse"><path d="M-201.164 85.847h252v-252h-252Z"/></clipPath></defs><g fill="none" fill-rule="evenodd"><path fill="#0A0F1D" d="M-302-16h471v172h-471z"/><path fill="url(#a)" d="M471 21.091V172H228.363q30.354-39.98 78.51-52.89c48.658-13.047 40.996-39.246 85.229-66.366Q435.56 26.099 471 21.091" transform="translate(-302 -16)"/><g fill="#FFF" opacity=".12"><path d="M97.083 32.663h1V155.58h-1zM60.385 61.61h1v93.97h-1zm-36.698 34.4h1v59.57h-1z"/><path d="M-27.88 116.114H169v1H-27.88zm94.452-61.036H169v1H66.572z"/></g><path fill="#FFB200" fill-rule="nonzero" d="M169 4.727v.848l-.102.015q-34.792 5.075-77.346 30.976l-.878.536c-9.679 5.93-17.392 12.105-24.3 19.117-2.517 2.556-4.892 5.179-7.469 8.209l-.926 1.097-1.186 1.429-5.815 7.089-.588.708-.596.713-.597.707-.598.702c-5.24 6.119-9.421 10.148-14.726 13.936-7.404 5.287-16.367 9.378-28.114 12.57l-.498.135C-26.677 112.07-52.725 129.562-72.895 156h-1.054l.17-.226c20.312-26.743 46.59-44.436 78.823-53.07 11.898-3.187 20.918-7.277 28.341-12.577 5.919-4.227 10.43-8.765 16.652-16.265l6.014-7.328 1.207-1.456.225-.268.783-.926c2.589-3.045 4.977-5.682 7.51-8.254 6.955-7.06 14.721-13.278 24.46-19.243Q133.576 9.833 169 4.727"/><g fill="#101218" stroke="#FFB200" transform="translate(41.568 33.745)"><ellipse cx="1.619" cy="48.377" stroke-width="2" rx="1.619" ry="1.618"/><ellipse cx="51.155" cy="1.618" rx="1.619" ry="1.618"/></g><path fill="#FFB200" d="M26 12c7.732 0 14 6.268 14 14s-6.268 14-14 14a13.93 13.93 0 0 1-7.292-2.047L21.546 33h5.085a7 7 0 1 0 0-14h-2.553a1.51 1.51 0 1 0 0 3.02h2.553a3.98 3.98 0 0 1 0 7.96h-5.49a1.51 1.51 0 0 0-1.462 1.133 2 2 0 0 0-.033.108l-1.675 6.25A13.98 13.98 0 0 1 12 26c0-7.732 6.268-14 14-14m.631 12.078h-3.596a1.922 1.922 0 0 0 0 3.844h3.596a1.922 1.922 0 1 0 0-3.844"/><g transform="translate(12 58)"><use xlink:href="#b" fill="#000" filter="url(#d)"/><use xlink:href="#b" fill="#FFF"/></g><path fill="#000" fill-rule="nonzero" d="M56 86.007v10.667h-4.057v-10.81c-.016-2.43-2.01-4.421-4.444-4.443-2.488-.022-4.524 2.076-4.524 4.564v10.69h-4.057V85.892c-.016-2.442-2.001-4.435-4.434-4.458-2.494-.024-4.534 2.079-4.534 4.572v10.667H26v-10.81c0-4.688 3.799-8.481 8.488-8.481 2.6 0 4.926 1.177 6.485 3.017-.002.002.002.002 0 0a8.53 8.53 0 0 1 6.758-3.021C52.356 77.51 56 81.38 56 86.007"/><g transform="translate(58 58)"><use xlink:href="#e" fill="#000" filter="url(#f)"/><use xlink:href="#e" fill="#FFF"/></g><path d="M0 0c6.632-12.101 10.406-25.988 10.406-40.76 0-31.345-16.987-58.711-42.246-73.438l25.95 75.03C-1.043-27.047.571-17.355.571-8.737.571-5.609.365-2.706 0 0m-62.846-.925c5.115.269 9.724.807 9.724.807 4.578.542 4.038 7.27-.542 7.002 0 0-13.762-1.08-22.646-1.08-8.348 0-22.376 1.08-22.376 1.08-4.582.268-5.119-6.731-.539-7.002 0 0 4.334-.538 8.912-.807l13.236-36.269-18.596-55.763-30.938 92.032c5.119.269 9.723.807 9.723.807 4.575.542 4.035 7.27-.543 7.002 0 0-13.759-1.08-22.644-1.08-1.594 0-3.473.039-5.468.103 15.192 23.064 41.304 38.295 70.988 38.295 22.118 0 42.258-8.457 57.373-22.307-.366.022-.723.068-1.1.068-8.346 0-14.268-7.27-14.268-15.079 0-7.002 4.04-12.926 8.346-19.927 3.231-5.659 7.005-12.928 7.005-23.432 0-7.271-2.797-15.71-6.465-27.466l-8.477-28.315zm-11.709-124.804a85 85 0 0 0-24.003 3.462l25.495 74.075 26.114-71.549c.172-.42.383-.807.608-1.171a84.8 84.8 0 0 0-28.214-4.817m-84.962 84.969a84.6 84.6 0 0 0 7.357 34.577l40.529-111.042c-28.345 13.77-47.886 42.835-47.886 76.465m84.962 94.497c-52.107 0-94.499-42.391-94.499-94.497 0-52.108 42.392-94.504 94.499-94.504s94.5 42.396 94.5 94.504c0 52.106-42.394 94.497-94.5 94.497" clip-path="url(#g)" style="fill:#3f3c3c;fill-opacity:1;fill-rule:nonzero;stroke:none" transform="matrix(.17425 0 0 -.17425 99.991 79.897)"/></g></svg>